<?xml version="1.0" standalone="no"?><!DOCTYPE svg PUBLIC "-//W3C//DTD SVG 1.1//EN" "http://www.w3.org/Graphics/SVG/1.1/DTD/svg11.dtd"><svg t="1557053314220" class="icon" style="" viewBox="0 0 1024 1024" version="1.1" xmlns="http://www.w3.org/2000/svg" p-id="1383" xmlns:xlink="http://www.w3.org/1999/xlink" width="64" height="64"><defs><style type="text/css"></style></defs><path d="M512 102c-227.2 0-410 182.804-410 410 0 227.195 182.804 410 410 410s410-182.805 410-410c0-227.196-182.804-410-410-410z m0 785.819c-206.697 0-375.823-169.122-375.823-375.819S305.303 136.177 512 136.177 887.819 305.303 887.819 512 718.697 887.819 512 887.819z m0 0" p-id="1384" fill="#f4ea2a"></path><path d="M725.554 609.375c-8.558-3.429-18.803-1.701-22.201 6.821C665.782 689.645 592.3 734.071 512.03 734.071c-81.996 0-153.747-44.426-191.322-117.874-3.423-8.554-13.678-11.951-22.196-6.821-8.552 3.423-11.946 13.677-8.552 22.195 42.699 83.698 126.427 136.677 222.071 136.677 93.948 0 179.377-52.944 220.375-136.677 5.125-8.552 1.697-18.802-6.821-22.195h-0.031z m0 0M426.572 426.571c0 28.317-22.931 51.248-51.248 51.248-28.317 0-51.252-22.931-51.252-51.248 0-28.317 22.934-51.247 51.252-51.247 28.317-0.001 51.248 22.929 51.248 51.247z m0 0M699.929 426.571c0 28.317-22.935 51.248-51.253 51.248-28.317 0-51.247-22.931-51.247-51.248 0-28.317 22.93-51.247 51.247-51.247 28.318-0.001 51.253 22.929 51.253 51.247z m0 0" p-id="1385" fill="#f4ea2a"></path></svg>