<?xml version="1.0" standalone="no"?><!DOCTYPE svg PUBLIC "-//W3C//DTD SVG 1.1//EN" "http://www.w3.org/Graphics/SVG/1.1/DTD/svg11.dtd"><svg t="1556173346864" class="icon" style="" viewBox="0 0 1024 1024" version="1.1" xmlns="http://www.w3.org/2000/svg" p-id="2810" xmlns:xlink="http://www.w3.org/1999/xlink" width="64" height="64"><defs><style type="text/css"></style></defs><path d="M879.5 846.1h-735c-17.5 0-31.7 14.3-31.7 31.7v2.4c0 17.5 14.3 31.7 31.7 31.7h735c17.5 0 31.7-14.3 31.7-31.7v-2.4c0.1-17.4-14.2-31.7-31.7-31.7zM144.5 705.4h285.6c17.5 0 31.7-14.3 31.7-31.7v-2.4c0-17.5-14.3-31.7-31.7-31.7H144.5c-17.5 0-31.7 14.3-31.7 31.7v2.4c-0.1 17.4 14.2 31.7 31.7 31.7zM144.5 446.4h285.6c17.5 0 31.7-14.3 31.7-31.7v-2.4c0-17.5-14.3-31.7-31.7-31.7H144.5c-17.5 0-31.7 14.3-31.7 31.7v2.4c-0.1 17.4 14.2 31.7 31.7 31.7zM144.5 187.4h285.6c17.5 0 31.7-14.3 31.7-31.7v-2.4c0-17.5-14.3-31.7-31.7-31.7H144.5c-17.5 0-31.7 14.3-31.7 31.7v2.4c-0.1 17.4 14.2 31.7 31.7 31.7zM655.1 337.6V721c0 17.5 14.3 31.7 31.7 31.7h2.4c17.5 0 31.7-14.3 31.7-31.7V337.6h174.7c7-7 7-18.4 0-25.4l-195-195c-7-7-18.4-7-25.4 0l-195 195c-7 7-7 18.4 0 25.4h174.9z" fill="#ffffff" p-id="2811"></path></svg>