<?xml version="1.0" standalone="no"?><!DOCTYPE svg PUBLIC "-//W3C//DTD SVG 1.1//EN" "http://www.w3.org/Graphics/SVG/1.1/DTD/svg11.dtd"><svg t="1556173187186" class="icon" style="" viewBox="0 0 1024 1024" version="1.1" xmlns="http://www.w3.org/2000/svg" p-id="1978" xmlns:xlink="http://www.w3.org/1999/xlink" width="64" height="64"><defs><style type="text/css"></style></defs><path d="M256 791.893333a21.333333 21.333333 0 0 0 21.333333 21.333334H768v-42.666667H279.04a21.333333 21.333333 0 0 0-23.04 21.333333z" fill="#ffffff" p-id="1979"></path><path d="M810.666667 172.8v682.666667H279.04a64 64 0 1 1 0-128h495.36v-597.333334H256a85.333333 85.333333 0 0 0-85.333333 85.333334v597.333333a85.333333 85.333333 0 0 0 85.333333 85.333333h597.333333v-725.333333z m-354.133334 202.24a24.32 24.32 0 0 1 0 23.04 22.613333 22.613333 0 0 1-19.2 11.52H261.12a21.333333 21.333333 0 0 1-18.773333-11.52 22.186667 22.186667 0 0 1 0-23.04 21.333333 21.333333 0 0 1 18.773333-11.52h176.64a22.613333 22.613333 0 0 1 19.2 11.52z m-213.333333-110.506667a21.333333 21.333333 0 0 1 17.92-8.533333h88.32a22.613333 22.613333 0 0 1 20.48 23.04 22.613333 22.613333 0 0 1-20.48 23.04H261.12A21.76 21.76 0 0 1 245.76 298.666667a23.893333 23.893333 0 0 1-6.4-16.64 23.04 23.04 0 0 1 6.4-17.493334z" fill="#ffffff" p-id="1980"></path></svg>