<?xml version="1.0" standalone="no"?><!DOCTYPE svg PUBLIC "-//W3C//DTD SVG 1.1//EN" "http://www.w3.org/Graphics/SVG/1.1/DTD/svg11.dtd"><svg t="1556173093762" class="icon" style="" viewBox="0 0 1024 1024" version="1.1" xmlns="http://www.w3.org/2000/svg" p-id="1649" xmlns:xlink="http://www.w3.org/1999/xlink" width="64" height="64"><defs><style type="text/css"></style></defs><path d="M878.289895 243.107877 878.289895 132.096551c-315.15682 0-363.485525 103.748922-366.279151 110.469997-2.817162-6.721075-51.144844-110.469997-366.302687-110.469997l0 111.010303c-25.6461-1.554402-52.748365-2.452865-81.406055-2.452865l0 572.270688c0 0 247.544933-26.762527 370.456287 38.420031 20.836561 11.07422 43.253106 40.380686 77.252455 40.557718 33.975812 0.169869 56.488549-29.556153 77.398788-40.630373 122.959449-65.109903 370.286418-38.347376 370.286418-38.347376L959.69595 240.653989C931.03826 240.653989 903.935995 241.553475 878.289895 243.107877zM483.937362 775.062348c-86.117356-49.372477-214.152405-58.236356-293.761534-58.236356-1.26276 0-2.52552 0-3.740184 0L186.435645 173.430958c241.206574 7.546883 286.086737 81.526805 288.223401 85.388762l9.277294 22.166859L483.936339 775.062348zM837.562309 716.825992c-1.214664 0-2.477424 0-3.740184 0-80.19139 0-209.538317 8.984628-295.606555 59.33027L538.21557 285.510616l11.123338-26.689872c2.112104-3.789303 46.895053-77.841879 288.223401-85.388762L837.562309 716.825992z" p-id="1650" fill="#ffffff"></path></svg>