<?xml version="1.0" standalone="no"?><!DOCTYPE svg PUBLIC "-//W3C//DTD SVG 1.1//EN" "http://www.w3.org/Graphics/SVG/1.1/DTD/svg11.dtd"><svg t="1556173423227" class="icon" style="" viewBox="0 0 1024 1024" version="1.1" xmlns="http://www.w3.org/2000/svg" p-id="3049" xmlns:xlink="http://www.w3.org/1999/xlink" width="64" height="64"><defs><style type="text/css"></style></defs><path d="M155.328 945.024H32.96A32.96 32.96 0 0 1 0 912V111.936c0-18.176 14.72-32.96 32.96-32.96h122.368c18.24 0 33.024 14.72 33.024 32.96V912a33.024 33.024 0 0 1-33.024 33.024z" p-id="3050" fill="#ffffff"></path><path d="M37.696 116.672h113.024v790.72H37.696zM381.376 945.024H258.944a32.896 32.896 0 0 1-32.96-33.024V111.936c0-18.176 14.72-32.96 32.96-32.96h122.432c18.176 0 32.96 14.72 32.96 32.96V912a33.024 33.024 0 0 1-32.96 33.024z" p-id="3051" fill="#ffffff"></path><path d="M263.744 116.672h112.96v790.72H263.744zM465.664 214.016l130.496-75.392 414.208 717.376-130.432 75.392L465.664 214.016z m0 0" p-id="3052" fill="#ffffff"></path><path d="M885.056 945.024a32.896 32.896 0 0 1-28.544-16.448L456.448 235.648a32.896 32.896 0 0 1 12.096-45.056l105.984-61.184a32.96 32.96 0 0 1 44.992 12.032l400.064 692.928a33.152 33.152 0 0 1-12.032 45.056l-105.984 61.12a33.472 33.472 0 0 1-16.512 4.48zM491.392 220.864l395.328 684.736 97.856-56.512L589.248 164.352l-97.856 56.512z m0 0" p-id="3053" fill="#ffffff"></path></svg>