<?xml version="1.0" standalone="no"?><!DOCTYPE svg PUBLIC "-//W3C//DTD SVG 1.1//EN" "http://www.w3.org/Graphics/SVG/1.1/DTD/svg11.dtd"><svg t="1556173860947" class="icon" style="" viewBox="0 0 1024 1024" version="1.1" xmlns="http://www.w3.org/2000/svg" p-id="8934" xmlns:xlink="http://www.w3.org/1999/xlink" width="64" height="64"><defs><style type="text/css"></style></defs><path d="M913.826909 575.022545C913.873455 572.928 913.873455 570.833455 913.873455 568.738909 913.873455 541.323636 910.196364 514.56 903.214545 488.727273 916.340364 460.706909 923.461818 430.592 923.461818 399.313455 923.461818 253.579636 768.930909 134.981818 578.978909 134.981818 507.997091 134.981818 441.949091 151.552 387.072 179.898182 347.415273 181.387636 308.922182 186.414545 272.151273 194.653091 345.925818 125.858909 456.098909 82.106182 578.978909 82.106182 800.581818 82.106182 980.852364 224.395636 980.852364 399.313455 980.852364 463.918545 956.416 524.474182 913.826909 575.022545ZM846.894545 545.326545C846.894545 696.506182 712.936727 825.483636 526.615273 855.691636L468.386909 930.769455C462.987636 937.704727 454.283636 941.847273 445.021091 941.847273 435.758545 941.847273 427.054545 937.704727 421.701818 930.769455L363.473455 855.691636C177.105455 825.483636 43.147636 696.459636 43.147636 545.326545 43.147636 370.408727 223.418182 228.119273 445.021091 228.119273 666.624 228.119273 846.894545 370.408727 846.894545 545.326545ZM88.715636 544.302545C88.715636 676.724364 212.061091 789.783273 381.998545 813.149091 389.957818 814.219636 397.079273 818.269091 401.733818 824.273455L445.021091 879.988364 488.261818 824.273455C492.916364 818.222545 500.037818 814.173091 508.043636 813.102545 677.934545 789.783273 801.28 676.724364 801.28 544.302545 801.28 393.541818 641.489455 270.894545 445.021091 270.894545 248.552727 270.894545 88.715636 393.541818 88.715636 544.302545ZM522.845091 559.848727C522.845091 589.032727 497.058909 612.724364 465.408 612.724364 433.757091 612.724364 408.017455 589.032727 408.017455 559.848727 408.017455 530.711273 433.757091 506.973091 465.408 506.973091 497.058909 506.973091 522.845091 530.711273 522.845091 559.848727ZM651.822545 506.973091C683.473455 506.973091 709.213091 530.711273 709.213091 559.848727 709.213091 589.032727 683.473455 612.724364 651.822545 612.724364 620.125091 612.724364 594.385455 589.032727 594.385455 559.848727 594.385455 530.711273 620.125091 506.973091 651.822545 506.973091ZM287.744 612.724364C256.093091 612.724364 230.306909 589.032727 230.306909 559.848727 230.306909 530.711273 256.093091 506.973091 287.744 506.973091 319.394909 506.973091 345.134545 530.711273 345.134545 559.848727 345.134545 589.032727 319.394909 612.724364 287.744 612.724364Z" p-id="8935" fill="#ffffff"></path></svg>