<?xml version="1.0" standalone="no"?><!DOCTYPE svg PUBLIC "-//W3C//DTD SVG 1.1//EN" "http://www.w3.org/Graphics/SVG/1.1/DTD/svg11.dtd"><svg t="1556173824034" class="icon" style="" viewBox="0 0 1024 1024" version="1.1" xmlns="http://www.w3.org/2000/svg" p-id="8139" xmlns:xlink="http://www.w3.org/1999/xlink" width="64" height="64"><defs><style type="text/css"></style></defs><path d="M920 743.5c-17.1 0-31-13.9-31-31 0-4.6-8.3-22.8-45.2-45.5-35.1-21.7-83.7-39.6-130-48.1l-25.5-4.6c-14.7-2.7-25.4-15.5-25.4-30.5v-63.5c0-9.7 4.5-18.8 12.3-24.7l12.3-9.3c24.7-18.7 82.2-76.9 82.2-212 0-42.8-12.3-77.5-35.6-100.4-23.6-23.1-59.6-35.4-104.1-35.4-17.1 0-31-13.9-31-31s13.9-31 31-31c61 0 112 18.4 147.5 53.1 35.5 34.8 54.2 84.8 54.2 144.6 0 69.6-13.5 130.4-40.2 180.7-22.2 41.9-48.4 67-66.5 80.7v22.2c53.5 9.7 110.1 30.8 151.4 56.3 21.8 13.5 39.2 27.9 51.8 43 15.2 18.2 22.9 36.8 22.9 55.3-0.1 17.2-14 31.1-31.1 31.1z" p-id="8140" fill="#ffffff"></path><path d="M401 938c-98.7 0-172.4-9.3-225.4-28.4-39.1-14.1-68.4-34.4-86.9-60.4C73.6 828.1 66 804 66 777.7c0-40.3 30.7-75.1 91.2-103.3 39.1-18.2 87.7-32.1 139.1-39.7v-9.2C257.5 596 230 553 214.7 497.3c-14.5-52.5-16.3-108.8-16.3-152 0-65.6 18.2-117.4 54.2-153.9 36.1-36.7 87.3-55.3 152.1-55.3h6.9c64.9 0 116.1 18.6 152.2 55.3 35.9 36.5 54.2 88.3 54.2 153.9 0 43.2-1.9 99.6-16.3 152-15.3 55.6-42.8 98.6-81.6 128.2v9.2c51.4 7.7 100 21.5 139.1 39.7 60.5 28.2 91.2 62.9 91.2 103.3 0 32.5-13.2 62.4-38.3 86.5-19.2 18.4-45.7 33.4-78.8 44.8-56.7 19.2-134.7 29-232.3 29z m3.6-740c-95.7 0-144.3 49.5-144.3 147.2 0 39.3 1.6 90.3 14.1 135.6 12.9 46.8 36.1 81.1 69 102 9.3 6 14.9 16.1 14.9 27v51.3c0 16.4-12.3 30.1-28.6 31.8-54.5 5.7-106.4 19.1-146.3 37.7-34.7 16.2-55.4 33.8-55.4 47.1 0 32.5 23.1 57.2 68.6 73.6 46.1 16.6 113 24.7 204.4 24.7 90.8 0 162.1-8.7 211.9-25.7 24.5-8.4 43.3-18.8 55.9-30.9 12.7-12.2 19.2-26.3 19.2-41.7 0-13.3-20.7-30.9-55.4-47.1-39.8-18.6-91.7-31.9-146.2-37.7-16.3-1.7-28.7-15.4-28.7-31.8v-51.3c0-11 5.5-21.1 14.8-27 32.9-20.9 56.1-55.3 69-102 12.5-45.3 14.1-96.2 14.1-135.6 0-97.7-48.6-147.2-144.3-147.2h-6.7z" p-id="8141" fill="#ffffff"></path></svg>