<?xml version="1.0" standalone="no"?><!DOCTYPE svg PUBLIC "-//W3C//DTD SVG 1.1//EN" "http://www.w3.org/Graphics/SVG/1.1/DTD/svg11.dtd"><svg t="1556173768212" class="icon" style="" viewBox="0 0 1024 1024" version="1.1" xmlns="http://www.w3.org/2000/svg" p-id="7227" xmlns:xlink="http://www.w3.org/1999/xlink" width="64" height="64"><defs><style type="text/css"></style></defs><path d="M980.18583656 192.11693294l-43.20528853 42.91231017L793.09971404 92.0336894l43.20528853-42.8520227c15.85572399-15.7964939 40.84982862-16.62465986 55.70286951-1.82767593l89.94746871 89.35833886C996.86761074 151.50614044 996.04156054 176.32361217 980.18583656 192.11693294L980.18583656 192.11693294zM598.58548401 571.36394135L454.70570739 428.36627188l316.52641252-314.5221037 143.88189239 142.99661108L598.58548401 571.36394135 598.58548401 571.36394135zM578.5455658 591.28645573l-201.4092647 57.17304912 57.52948808-200.17283334L578.5455658 591.28645573 578.5455658 591.28645573zM243.21355169 156.40109781c-49.7491721 0-90.00669879 40.25752669-90.00669879 89.94746871l0 539.92067415c0 49.67725051 40.27127659 89.94958343 89.94958343 89.94958344l540.03807698 0c49.67830788 0 89.9516992-40.27233395 89.9516992-89.95169919L873.14621251 426.30273297l90.00458303-89.9516992 0 479.91938076c0 82.81657002-67.13642156 149.95193422-149.95193422 149.9519342L213.15314672 966.22234873c-82.81657002 0-149.95193422-67.13642156-149.95193422-149.9519342L63.2012125 216.34527483c0-82.81657002 67.13642156-149.95193422 149.95193422-149.95193421l480.03784197 0-90.00881353 90.00881352L243.21355169 156.40215518 243.21355169 156.40109781z" fill="#ffffff" p-id="7228"></path></svg>