<?xml version="1.0" standalone="no"?><!DOCTYPE svg PUBLIC "-//W3C//DTD SVG 1.1//EN" "http://www.w3.org/Graphics/SVG/1.1/DTD/svg11.dtd"><svg t="1556556995675" class="icon" style="" viewBox="0 0 1024 1024" version="1.1" xmlns="http://www.w3.org/2000/svg" p-id="2298" xmlns:xlink="http://www.w3.org/1999/xlink" width="64" height="64"><defs><style type="text/css"></style></defs><path d="M978.7422368 187.3853088l-44.58777067 44.2854176L785.66973547 84.0996032l44.58777066-44.22320106c16.3630752-16.30194987 42.1569408-17.15661547 57.48524907-1.88615787l92.8256064 92.2176256C995.95779413 145.4750528 995.105312 171.0866336 978.7422368 187.3853088L978.7422368 187.3853088zM584.93144213 578.76745707L436.44780267 431.1941504l326.65461973-324.58617706 148.48582293 147.5722144L584.93144213 578.76745707 584.93144213 578.76745707zM564.25028693 599.32745174l-207.8539552 59.00247146 59.37031574-206.57796053L564.25028693 599.32745174 564.25028693 599.32745174zM218.18832427 150.52663894c-51.34104533 0-92.88673173 41.5456864-92.88673174 92.8256064l0 557.19704746c0 51.2668224 41.55987627 92.8277888 92.8277888 92.8277888l557.31820694 0c51.2679136 0 92.82997227-41.56096747 92.82997226-92.82997226L868.27756053 429.0645824l92.88454827-92.82997226 0 495.2758336c0 85.46653333-69.28465173 154.75009387-154.75009387 154.75009386L187.16604693 986.2605376c-85.46653333 0-154.75009387-69.28465173-154.75009386-154.75009386L32.41595307 212.3889088c0-85.46653333 69.28465173-154.75009387 154.75009386-154.75009386l495.39808534 0-92.88891414 92.88891413L218.18832427 150.52773014 218.18832427 150.52663894z" fill="#ffffff" p-id="2299"></path></svg>