<?xml version="1.0" standalone="no"?><!DOCTYPE svg PUBLIC "-//W3C//DTD SVG 1.1//EN" "http://www.w3.org/Graphics/SVG/1.1/DTD/svg11.dtd"><svg t="1556557138581" class="icon" style="" viewBox="0 0 1365 1024" version="1.1" xmlns="http://www.w3.org/2000/svg" p-id="3103" xmlns:xlink="http://www.w3.org/1999/xlink" width="85.3125" height="64"><defs><style type="text/css"></style></defs><path d="M1241.83455979 384.92452813H1243.81569182a51.79245293 51.79245293 0 0 0 39.62264151-50.3773585V231.8113206a169.8113206 169.8113206 0 0 0-169.8113206-169.8113206H253.24965422a169.8113206 169.8113206 0 0 0-169.8113206 169.8113206v102.16981143a51.50943369 51.50943369 0 0 0 39.62264151 50.3773585h1.98113203a134.15094317 134.15094317 0 0 1 91.98113203 127.64150947 133.58490557 133.58490557 0 0 1-91.98113203 127.07547188h-3.67924571A50.66037773 50.66037773 0 0 0 83.43833362 687.47169834a7.92452813 7.92452813 0 0 0 0 2.54716963 11.60377383 11.60377383 0 0 0 0 3.11320723v98.20754736a169.8113206 169.8113206 0 0 0 169.8113206 169.81132061h859.81132091a169.8113206 169.8113206 0 0 0 169.8113206-169.81132061V690.30188721a52.07547129 52.07547129 0 0 0-37.35849112-50.09434013 133.86792481 133.86792481 0 0 1-3.96226406-254.71698135zM869.09871077 320.39622617a209.43396211 209.43396211 0 0 1-12.73584902 23.77358526L762.68361604 498.69811338h41.60377354c30.5660373 0 45.84905684 9.90566016 45.84905684 29.9999997s-15.28301865 30.5660373-45.84905684 30.56603819h-73.58490528v46.69811279h73.58490528c30.5660373 0 45.84905684 10.1886794 45.84905684 30.84905654s-15.28301865 29.71698135-45.84905684 29.71698135h-73.58490528v26.03773565q0 66.22641474-44.15094316 66.22641563c-29.71698135 0-44.4339624-22.07547158-44.4339624-66.22641563v-26.03773565h-73.58490615c-30.84905654 0-46.13207519-9.90566016-46.1320752-29.71698135s15.28301865-30.84905654 46.1320752-30.84905654h73.30188691v-46.69811279h-73.30188691c-30.84905654 0-46.13207519-10.1886794-46.1320752-30.56603818s15.28301865-29.99999971 46.1320752-29.99999971h41.32075517L512.49493724 345.01886826c-7.64150977-12.16981143-12.73584902-20.66037714-15.28301865-26.03773652a41.88679278 41.88679278 0 0 1-3.67924571-17.26415069 36.22641503 36.22641503 0 0 1 10.47169776-28.30188691 35.66037744 35.66037744 0 0 1 26.32075488-10.1886794 35.9433958 35.9433958 0 0 1 26.88679248 10.1886794 175.18867911 175.18867911 0 0 1 24.05660361 32.54717021l105.00000029 164.71698135L780.51380521 316.71698135c3.39622646-5.94339609 7.07547129-12.45282979 11.03773535-18.96226436a196.13207549 196.13207549 0 0 1 11.32075546-16.98113232 50.37735849 50.37735849 0 0 1 13.86792422-11.60377295 40.18867911 40.18867911 0 0 1 19.81132032-4.52830254 36.50943427 36.50943427 0 0 1 26.32075488 9.90566103 32.26415098 32.26415098 0 0 1 10.47169863 24.33962198 51.22641533 51.22641533 0 0 1-4.2452833 21.50943398z" p-id="3104" fill="#ffffff"></path></svg>