<?xml version="1.0" standalone="no"?><!DOCTYPE svg PUBLIC "-//W3C//DTD SVG 1.1//EN" "http://www.w3.org/Graphics/SVG/1.1/DTD/svg11.dtd"><svg t="1556173951276" class="icon" style="" viewBox="0 0 1024 1024" version="1.1" xmlns="http://www.w3.org/2000/svg" p-id="10216" xmlns:xlink="http://www.w3.org/1999/xlink" width="64" height="64"><defs><style type="text/css"></style></defs><path d="M649.6 440.9c17.9 0 32.4-14.5 32.4-32.4S667.5 376 649.6 376h-55l30.1-30.1c12.7-12.7 12.7-33.2 0-45.9-12.7-12.7-33.2-12.7-45.9 0l-69.5 69.5-69.5-69.5c-12.7-12.7-33.2-12.7-45.9 0-12.7 12.7-12.7 33.2 0 45.9L424 376h-50c-17.9 0-32.4 14.5-32.4 32.4s14.5 32.4 32.4 32.4h105.4V501H374c-17.9 0-32.4 14.5-32.4 32.4S356.1 566 374 566h105.4v146.6c0 17.9 14.5 32.4 32.4 32.4s32.4-14.5 32.4-32.4V566h105.4c17.9 0 32.4-14.5 32.4-32.4s-14.5-32.4-32.4-32.4H544.2V441h105.4z" p-id="10217" fill="#ffffff"></path><path d="M976.7 418c27.2-5.3 46.9-29.3 46.9-57V235.8c0-46.5-37.8-84.3-84.3-84.3h-855C37.8 151.5 0 189.3 0 235.8v127c0 26.9 18.2 50.1 44.3 56.5 45.8 11.1 77.8 51.6 77.8 98.5s-32 87.3-77.8 98.5C18.2 622.6 0 645.8 0 672.7v124.2c0 46.5 37.8 84.3 84.3 84.3h855c46.5 0 84.3-37.8 84.3-84.3V674.5c0-27.7-19.7-51.7-46.9-57-47.7-9.3-82.3-51.3-82.3-99.7 0.1-48.4 34.7-90.4 82.3-99.8z m-18 262v116.9c0 10.7-8.7 19.5-19.5 19.5h-855c-10.7 0-19.5-8.7-19.5-19.5v-119c72.2-20 122.1-85.1 122.1-160.1 0-75.1-49.9-140.2-122.1-160.1V235.8c0-10.7 8.7-19.5 19.5-19.5h855c10.7 0 19.5 8.7 19.5 19.5v119.8c-75.2 17.4-129.2 84.7-129.2 162.2S883.6 662.6 958.7 680z" p-id="10218" fill="#ffffff"></path></svg>