<?xml version="1.0" standalone="no"?><!DOCTYPE svg PUBLIC "-//W3C//DTD SVG 1.1//EN" "http://www.w3.org/Graphics/SVG/1.1/DTD/svg11.dtd"><svg t="1556180889200" class="icon" style="" viewBox="0 0 1024 1024" version="1.1" xmlns="http://www.w3.org/2000/svg" p-id="3748" xmlns:xlink="http://www.w3.org/1999/xlink" width="64" height="64"><defs><style type="text/css"></style></defs><path d="M864 64 288 64c-52.935 0-96 43.065-96 96l0 96-64 0c-35.346 0-64 28.654-64 64l0 384c0 35.347 28.654 64 64 64l64 0 0 96c0 52.935 43.065 96 96 96l576 0c52.935 0 96-43.065 96-96L960 160C960 107.065 916.935 64 864 64zM435.612 627.612 359.02 627.612l-39.019-57.806-39.021 57.806-76.592 0 76.592-115.611-76.592-115.613 76.592 0 39.021 57.806 39.019-57.806 76.593 0L359.02 512.001 435.612 627.612zM896 864c0 17.645-14.355 32-32 32L288 896c-17.645 0-32-14.355-32-32l0-96 256 0c35.347 0 64-28.653 64-64l0-64 224 0c17.673 0 32-14.326 32-32s-14.327-32-32-32L576 576l0-64 224 0c17.673 0 32-14.326 32-32 0-17.673-14.327-32-32-32L576 448l0-64 224 0c17.673 0 32-14.326 32-32 0-17.673-14.327-32-32-32L576 320c0-35.346-28.653-64-64-64L256 256l0-96c0-17.645 14.355-32 32-32l576 0c17.645 0 32 14.355 32 32L896 864z" p-id="3749" fill="#ffffff"></path></svg>