<?xml version="1.0" standalone="no"?><!DOCTYPE svg PUBLIC "-//W3C//DTD SVG 1.1//EN" "http://www.w3.org/Graphics/SVG/1.1/DTD/svg11.dtd"><svg t="1556173541196" class="icon" style="" viewBox="0 0 1024 1024" version="1.1" xmlns="http://www.w3.org/2000/svg" p-id="4674" xmlns:xlink="http://www.w3.org/1999/xlink" width="64" height="64"><defs><style type="text/css"></style></defs><path d="M947.2 627.2v217.6c0 102.4-83.2 179.2-179.2 179.2H217.6C115.2 1024 38.4 940.8 38.4 844.8V294.4C38.4 192 121.6 115.2 217.6 115.2h89.6v89.6h-57.6C179.2 204.8 128 256 128 326.4v486.4c0 64 51.2 121.6 121.6 121.6h486.4c64 0 121.6-51.2 121.6-121.6V627.2h89.6z" p-id="4675" fill="#ffffff"></path><path d="M716.8 19.2c-19.2-19.2-57.6-19.2-76.8 0l-256 256c-19.2 19.2-12.8 38.4 12.8 38.4h192c0 57.6-12.8 256-288 300.8 153.6 51.2 467.2-38.4 492.8-300.8H960c32 0 38.4-19.2 19.2-38.4l-262.4-256z" p-id="4676" fill="#ffffff"></path></svg>