<?xml version="1.0" standalone="no"?><!DOCTYPE svg PUBLIC "-//W3C//DTD SVG 1.1//EN" "http://www.w3.org/Graphics/SVG/1.1/DTD/svg11.dtd"><svg t="1556908304619" class="icon" style="" viewBox="0 0 1024 1024" version="1.1" xmlns="http://www.w3.org/2000/svg" p-id="2117" xmlns:xlink="http://www.w3.org/1999/xlink" width="64" height="64"><defs><style type="text/css"></style></defs><path d="M640 0v128h179.2L600.32 346.88l76.8 76.8L896 204.8V384h128V0z m256 128zM128 204.8l218.88 218.88 76.8-76.8L204.8 128H384V0H0v384h128V204.8zM896 819.2l-218.88-218.88-76.8 76.8L819.2 896H640v128h384v-384h-128z m0 76.8zM346.88 600.32L128 819.2V640H0v384h384v-128H204.8l218.88-218.88-76.8-76.8z" p-id="2118"></path></svg>