<?xml version="1.0" standalone="no"?><!DOCTYPE svg PUBLIC "-//W3C//DTD SVG 1.1//EN" "http://www.w3.org/Graphics/SVG/1.1/DTD/svg11.dtd"><svg t="1556173926768" class="icon" style="" viewBox="0 0 1024 1024" version="1.1" xmlns="http://www.w3.org/2000/svg" p-id="9416" xmlns:xlink="http://www.w3.org/1999/xlink" width="64" height="64"><defs><style type="text/css"></style></defs><path d="M455.834 790.118a513.28 513.28 0 0 1-99.124-20.428L256 870.4V724.582a423.22 423.22 0 0 1-60.877-44.288C121.958 616.192 76.8 530.124 76.8 435.2 76.8 237.26 271.667 76.8 512 76.8s435.2 160.46 435.2 358.4c0 45.158-10.598 88.218-29.082 128h83.303c14.643-40.5 22.579-83.456 22.579-128C1024 194.867 794.778 0 512 0S0 194.867 0 435.2c0 131.994 69.99 249.446 179.2 329.216V972.8a51.2 51.2 0 0 0 51.2 51.2l166.042-165.99c37.273 7.372 75.622 12.39 115.558 12.39 8.653 0 17.05-0.717 25.6-1.075v-76.749c-8.5 0.358-16.947 1.024-25.6 1.024-19.098 0-37.734-1.434-56.166-3.482zM870.4 640h-76.8v153.6H640v76.8h153.6V1024h76.8V870.4H1024v-76.8H870.4V640zM268.8 332.8a38.4 38.4 0 0 0 0 76.8h486.4a38.4 38.4 0 0 0 0-76.8H268.8zM499.2 512H294.4a38.4 38.4 0 0 0 0 76.8h204.8a38.4 38.4 0 0 0 0-76.8z" fill="#ffffff" p-id="9417"></path></svg>