<?xml version="1.0" standalone="no"?><!DOCTYPE svg PUBLIC "-//W3C//DTD SVG 1.1//EN" "http://www.w3.org/Graphics/SVG/1.1/DTD/svg11.dtd"><svg t="1556180351750" class="icon" style="" viewBox="0 0 1032 1024" version="1.1" xmlns="http://www.w3.org/2000/svg" p-id="2015" xmlns:xlink="http://www.w3.org/1999/xlink" width="64.5" height="64"><defs><style type="text/css"></style></defs><path d="M28.16 601.6l399.36 0c17.92 0 28.16-12.8 28.16-28.16 0-17.92-12.8-28.16-28.16-28.16L28.16 545.28C12.8 542.72 0 555.52 0 570.88 0 586.24 12.8 601.6 28.16 601.6L28.16 601.6zM28.16 430.08l399.36 0c17.92 0 28.16-12.8 28.16-28.16 0-17.92-12.8-28.16-28.16-28.16L28.16 373.76C12.8 371.2 0 386.56 0 399.36 0 417.28 12.8 430.08 28.16 430.08L28.16 430.08zM84.48 258.56l399.36 0c17.92 0 28.16-12.8 28.16-28.16C512 215.04 499.2 204.8 483.84 204.8L84.48 204.8C69.12 202.24 58.88 215.04 58.88 227.84 58.88 245.76 69.12 258.56 84.48 258.56L84.48 258.56zM1021.44 529.92 796.16 212.48C788.48 204.8 780.8 204.8 775.68 204.8l-120.32 0L655.36 89.6c0-17.92-12.8-28.16-28.16-28.16L171.52 61.44C153.6 61.44 143.36 74.24 143.36 89.6S153.6 115.2 171.52 115.2l427.52 0 0 84.48 0 368.64c0 17.92 12.8 28.16 28.16 28.16l340.48 0 0 197.12-61.44 0c-12.8-64-71.68-112.64-140.8-112.64-69.12 0-125.44 48.64-140.8 112.64l-232.96 0c-12.8-64-71.68-112.64-140.8-112.64-69.12 0-125.44 48.64-140.8 112.64L28.16 793.6c-17.92 0-28.16 12.8-28.16 28.16 0 17.92 12.8 28.16 28.16 28.16l89.6 0c12.8 64 71.68 112.64 140.8 112.64s125.44-48.64 140.8-112.64l232.96 0c12.8 64 71.68 112.64 140.8 112.64 69.12 0 125.44-48.64 140.8-112.64l89.6 0c17.92 0 28.16-12.8 28.16-28.16L1031.68 540.16C1024 535.04 1021.44 532.48 1021.44 529.92L1021.44 529.92zM256 911.36c-48.64 0-84.48-38.4-84.48-84.48 0-48.64 38.4-84.48 84.48-84.48s84.48 38.4 84.48 84.48C340.48 872.96 304.64 911.36 256 911.36L256 911.36zM768 911.36c-48.64 0-84.48-38.4-84.48-84.48 0-48.64 38.4-84.48 84.48-84.48 48.64 0 84.48 38.4 84.48 84.48C852.48 872.96 816.64 911.36 768 911.36L768 911.36zM760.32 258.56l202.24 284.16-307.2 0L655.36 258.56 760.32 258.56 760.32 258.56z" p-id="2016" fill="#ffffff"></path></svg>