<?xml version="1.0" standalone="no"?><!DOCTYPE svg PUBLIC "-//W3C//DTD SVG 1.1//EN" "http://www.w3.org/Graphics/SVG/1.1/DTD/svg11.dtd"><svg t="1557138953247" class="icon" style="" viewBox="0 0 1024 1024" version="1.1" xmlns="http://www.w3.org/2000/svg" p-id="2625" xmlns:xlink="http://www.w3.org/1999/xlink" width="64" height="64"><defs><style type="text/css"></style></defs><path d="M511.603225 1022.987921c-69.457798 0-125.965017-56.508226-125.965017-125.966024 0-31.32912 11.577978-61.361169 32.601016-84.561435l44.774157 40.572772c-10.932463 12.06438-16.952569 27.686644-16.952569 43.988663 0 36.140774 29.402646 65.54342 65.542413 65.54342s65.542413-29.402646 65.542413-65.54342c0-14.913306-4.87409-28.956526-14.094579-40.613053l47.388441-37.487191c17.494358 22.116687 27.128742 49.852677 27.128742 78.100244C637.568242 966.479695 581.061023 1022.987921 511.603225 1022.987921z" p-id="2626" fill="#ffffff"></path><path d="M953.40525 833.830931c0 16.686709-13.527614 30.214323-30.214323 30.214323L101.816116 864.045254c-16.686709 0-30.214323-13.527614-30.214323-30.214323l0 0c0-16.686709 13.527614-30.214323 30.214323-30.214323L923.190927 803.616608C939.877636 803.617615 953.40525 817.144222 953.40525 833.830931L953.40525 833.830931z" p-id="2627" fill="#ffffff"></path><path d="M576.105362 204.846727c-16.684695 0-30.211302-13.526607-30.211302-30.211302L545.89406 110.26521c0-18.414796-14.981785-33.395573-33.395573-33.395573-18.414796 0-33.395573 14.980778-33.395573 33.395573l0 64.369207c0 16.684695-13.526607 30.211302-30.211302 30.211302s-30.211302-13.526607-30.211302-30.211302L418.680309 110.26521c0-51.73182 42.086358-93.818178 93.818178-93.818178 51.73182 0 93.818178 42.086358 93.818178 93.818178l0 64.369207C606.316664 191.32012 592.790057 204.846727 576.105362 204.846727z" p-id="2628" fill="#ffffff"></path><path d="M795.619676 598.621845c-16.684695 0-30.211302-13.526607-30.211302-30.211302L765.408374 456.047661c0-67.792148-26.40065-131.526918-74.335916-179.464198-47.93728-47.93728-111.673057-74.336923-179.465205-74.336923s-131.526918 26.399643-179.464198 74.336923-74.336923 111.67205-74.336923 179.464198l0 112.362882c0 16.684695-13.526607 30.211302-30.211302 30.211302s-30.211302-13.526607-30.211302-30.211302L197.383528 456.047661c0-83.932032 32.685608-162.840932 92.033697-222.189021 59.349096-59.349096 138.257996-92.034704 222.190028-92.034704 83.932032 0 162.840932 32.685608 222.190028 92.034704 59.350103 59.349096 92.034704 138.256989 92.034704 222.189021l0 112.362882C825.830978 585.095238 812.304371 598.621845 795.619676 598.621845z" p-id="2629" fill="#ffffff"></path><path d="M923.399385 864.071437c-5.708929 0-11.480295-1.615298-16.604132-4.993928-3.503504-2.310158-7.019093-4.732097-10.450089-7.199353-39.645285-28.513427-72.559491-66.399407-95.183728-109.561287-23.390597-44.6231-35.754069-95.003468-35.754069-145.696018L765.407367 493.786613c0-16.684695 13.526607-30.211302 30.211302-30.211302s30.211302 13.526607 30.211302 30.211302l0 102.835244c0 41.545576 9.705884 81.127417 28.847765 117.643817 18.28388 34.881969 44.890974 65.505152 76.945165 88.557383 2.771383 1.992939 5.610239 3.949624 8.438017 5.813662 13.928417 9.185243 17.773309 27.924307 8.587059 41.853731C942.841365 859.296037 933.21403 864.071437 923.399385 864.071437z" p-id="2630" fill="#ffffff"></path><path d="M100.024586 864.071437c-9.815652 0-19.440973-4.774393-25.248592-13.580987-9.18625-13.929424-5.340351-32.667481 8.588066-41.853731 2.821736-1.862023 5.661598-3.817702 8.441038-5.816683 32.050163-23.050216 58.657257-53.673399 76.941137-88.555369 19.141881-36.518415 28.847765-76.098242 28.847765-117.643817L197.594 493.786613c0-16.684695 13.526607-30.211302 30.211302-30.211302s30.211302 13.526607 30.211302 30.211302l0 102.835244c0 50.692551-12.363472 101.072918-35.754069 145.696018-22.624237 43.16188-55.537437 81.046853-95.181714 109.56028-3.44006 2.473299-6.955649 4.894231-10.452103 7.20036C111.506895 862.45614 105.733515 864.071437 100.024586 864.071437z" p-id="2631" fill="#ffffff"></path><path d="M1079.632099-9.218475" p-id="2632" fill="#ffffff"></path></svg>