<?xml version="1.0" standalone="no"?><!DOCTYPE svg PUBLIC "-//W3C//DTD SVG 1.1//EN" "http://www.w3.org/Graphics/SVG/1.1/DTD/svg11.dtd"><svg t="1557138978250" class="icon" style="" viewBox="0 0 1024 1024" version="1.1" xmlns="http://www.w3.org/2000/svg" p-id="2804" xmlns:xlink="http://www.w3.org/1999/xlink" width="64" height="64"><defs><style type="text/css"></style></defs><path d="M936.96 491.52h-179.2c-20.48 0-35.84 15.36-35.84 35.84v10.24c0 20.48 15.36 35.84 35.84 35.84h179.2c20.48 5.12 35.84-10.24 35.84-30.72v-10.24c0-20.48-15.36-40.96-35.84-40.96z m-414.72-322.56c-56.32 46.08-168.96 107.52-256 168.96 0 0 0 5.12-5.12 5.12-5.12 5.12-10.24 20.48-61.44 20.48h-102.4c-30.72 0-46.08 15.36-46.08 46.08v256c0 30.72 15.36 40.96 40.96 40.96h102.4c51.2 0 56.32 15.36 66.56 20.48 0 0 0 5.12 5.12 5.12 81.92 61.44 199.68 128 256 174.08 15.36 15.36 76.8 35.84 76.8-46.08V209.92c0-76.8-56.32-51.2-76.8-40.96z m163.84 179.2c10.24 15.36 30.72 20.48 46.08 10.24l148.48-128c15.36-10.24 15.36-35.84 5.12-51.2l-5.12-10.24c-10.24-15.36-30.72-20.48-46.08-10.24l-148.48 128c-15.36 10.24-15.36 35.84-5.12 51.2l5.12 10.24z m189.44 496.64L732.16 716.8c-15.36-10.24-30.72-5.12-40.96 10.24l-5.12 10.24c-10.24 15.36-5.12 40.96 5.12 51.2l148.48 128c15.36 10.24 30.72 5.12 40.96-10.24l5.12-10.24c5.12-15.36 5.12-40.96-10.24-51.2z" fill="#ffffff" p-id="2805"></path></svg>