<?xml version="1.0" standalone="no"?><!DOCTYPE svg PUBLIC "-//W3C//DTD SVG 1.1//EN" "http://www.w3.org/Graphics/SVG/1.1/DTD/svg11.dtd"><svg t="1556556870773" class="icon" style="" viewBox="0 0 1024 1024" version="1.1" xmlns="http://www.w3.org/2000/svg" p-id="1523" xmlns:xlink="http://www.w3.org/1999/xlink" width="64" height="64"><defs><style type="text/css"></style></defs><path d="M853.7 134c-2.4 0-4.8 0.3-7.1 1l-327.2 97.1L196.5 135c-2.3-0.7-4.8-1.1-7.2-1.1-44 0-79.8 35.8-79.8 79.8v498.9c0 26.6 12.6 61.8 72.9 78.8l336.5 99.2c2.3 0.7 4.7 1 7.1 1 2.4 0 4.9-0.4 7.2-1.1L861 791.3c17.9-5.5 72.5-22.2 72.5-78.7V213.8c0-44-35.8-79.8-79.8-79.8zM196.1 743.4c-36.6-10.3-36.6-24.1-36.6-30.7V213.8c0-15.4 11.7-28.1 26.7-29.6L494.9 277v554.5l-298.5-88c-0.1-0.1-0.2-0.1-0.3-0.1z m687.4-30.7c0 7.8 0 19.5-37 30.9l-301.6 91.3V276.7l312-92.6c15 1.6 26.7 14.2 26.7 29.6v499z" p-id="1524" fill="#e6e6e6"></path></svg>