<?xml version="1.0" standalone="no"?><!DOCTYPE svg PUBLIC "-//W3C//DTD SVG 1.1//EN" "http://www.w3.org/Graphics/SVG/1.1/DTD/svg11.dtd"><svg t="1556173735669" class="icon" style="" viewBox="0 0 1024 1024" version="1.1" xmlns="http://www.w3.org/2000/svg" p-id="6448" xmlns:xlink="http://www.w3.org/1999/xlink" width="64" height="64"><defs><style type="text/css"></style></defs><path d="M669.610667 738.005333c-6.613333 0-13.056-2.176-18.432-6.229333-14.165333-10.666667-17.408-31.402667-7.210667-46.293333l12.501333-17.962667c32.725333-46.506667 60.970667-86.698667 60.970667-155.733333 0-71.509333-25.045333-106.197333-56.746667-150.144-5.589333-7.722667-11.178667-15.530667-16.725333-23.594667-10.154667-14.848-6.954667-35.584 7.253333-46.293333 14.208-10.752 33.92-7.296 44.117334 7.594666 5.205333 7.594667 10.538667 14.976 15.786666 22.272 34.176 47.402667 69.504 96.426667 69.504 190.165334 0 90.794667-38.912 146.176-73.216 195.072l-12.074666 17.365333c-6.186667 9.002667-15.872 13.781333-25.728 13.781333zM180.138667 379.178667c-17.408 0-31.616 14.890667-31.616 33.152v198.912c0 18.304 14.208 33.152 31.616 33.152h94.848c8.362667 0 16.426667 3.456 22.314666 9.685333l189.696 199.04c3.370667 3.456 6.4 6.4 9.216 8.874667V161.664c-3.242667 2.816-6.314667 5.802667-9.258666 8.917333L297.301333 369.450667a30.574933 30.574933 0 0 1-22.314666 9.728H180.138667zM510.464 938.666667c-20.693333 0-43.605333-13.013333-68.138667-38.698667l-180.437333-189.269333H180.138667c-52.266667 0-94.805333-44.629333-94.805334-99.456V412.330667c0-54.826667 42.538667-99.456 94.805334-99.456h81.749333l180.352-189.184c24.277333-25.472 47.146667-38.357333 68.010667-38.357334 22.656 0 49.152 16.213333 49.152 61.781334v729.344c0 45.909333-26.368 62.208-48.938667 62.208z" fill="#ffffff" p-id="6449"></path><path d="M777.130667 850.56c-7.68 0-15.061333-2.944-20.821334-8.234667-13.098667-12.074667-14.464-33.024-2.944-46.762666 63.445333-75.904 122.112-162.730667 122.112-283.776 0-121.045333-58.666667-207.914667-122.112-283.733334-11.52-13.781333-10.154667-34.730667 2.944-46.805333 13.056-12.074667 33.024-10.709333 44.586667 3.029333C868.992 265.813333 938.666667 368.426667 938.666667 511.786667c0 143.36-69.674667 246.016-137.770667 327.466666-6.272 7.466667-15.018667 11.306667-23.765333 11.306667z" fill="#ffffff" p-id="6450"></path></svg>