<?xml version="1.0" standalone="no"?><!DOCTYPE svg PUBLIC "-//W3C//DTD SVG 1.1//EN" "http://www.w3.org/Graphics/SVG/1.1/DTD/svg11.dtd"><svg t="1556173499139" class="icon" style="" viewBox="0 0 1028 1024" version="1.1" xmlns="http://www.w3.org/2000/svg" p-id="3877" xmlns:xlink="http://www.w3.org/1999/xlink" width="64.25" height="64"><defs><style type="text/css"></style></defs><path d="M299.52 436.736h455.68v61.44h-455.68v-61.44z m0 165.376h455.68v61.44h-455.68v-61.44z m0 164.864H527.36v61.44H299.52v-61.44z" fill="#ffffff" p-id="3878"></path><path d="M854.528 178.176h-111.616c-0.512-44.544-36.864-80.896-81.92-81.92-4.608-41.472-39.936-74.24-82.944-74.24H476.16c-43.008 0-78.336 32.768-82.944 74.24-45.056 1.024-80.896 36.864-81.92 81.92H200.192c-45.056 0-81.92 36.352-81.92 81.408v660.992c0 45.056 36.864 81.408 81.92 81.408h654.336c45.056 0 81.92-36.352 81.92-81.408V259.072c0-44.544-36.864-80.896-81.92-80.896zM395.264 153.6h26.624c15.872 0 28.672-12.8 28.672-28.672v-19.968c0-14.336 11.264-25.6 25.6-25.6h102.4c14.336 0 25.6 11.264 25.6 25.6v19.968c0 15.872 12.8 28.672 28.672 28.672h26.624c13.824 0 25.088 10.752 25.6 24.576v67.072c0 14.336-11.264 25.6-25.6 25.6H395.264c-14.336 0-25.6-11.264-25.6-25.6V179.2v-1.024c0.512-13.824 11.776-24.576 25.6-24.576z m483.328 766.976c0 13.312-10.752 24.064-24.064 24.064H200.192c-13.312 0-24.064-10.752-24.064-24.064V259.072c0-13.312 10.752-24.064 24.064-24.064h111.616v9.728c0 45.568 37.376 82.944 83.456 82.944h264.704c46.08 0 83.456-37.376 83.456-82.944V235.52H855.04c13.312 0 24.064 10.752 24.064 24.064l-0.512 660.992z" fill="#ffffff" p-id="3879"></path></svg>