<?xml version="1.0" standalone="no"?><!DOCTYPE svg PUBLIC "-//W3C//DTD SVG 1.1//EN" "http://www.w3.org/Graphics/SVG/1.1/DTD/svg11.dtd"><svg t="1556173652945" class="icon" style="" viewBox="0 0 1024 1024" version="1.1" xmlns="http://www.w3.org/2000/svg" p-id="5483" xmlns:xlink="http://www.w3.org/1999/xlink" width="64" height="64"><defs><style type="text/css"></style></defs><path d="M699.1 12H178.6C110.2 12 66.8 53 66.8 116.9v779.5c0 63.8 55.5 115.6 123.9 115.6h665c68.4 0 101.5-52.3 101.5-116.1V283.4L699.1 12z m-24.4 79.7l193.6 203.1H713.4c-34.2 0-38.7-18.3-38.7-50.2V91.7z m216.5 815.6c0 31.9-4.5 38.7-38.7 38.7h-681c-34.2 0-38.7-6.8-38.7-38.7V117c0-31.9 4.5-38.7 38.7-38.7h437.3v205c0 63.8 9 77.4 77.4 77.4h205v546.6zM713.5 709.2h-403c-17.5 0-22.9 6.1-22.9 25.8v16.6c0 19.7 5.4 25.9 22.9 25.9h403c17.5 0 22.9-6.2 22.9-25.9V735c0-19.7-5.4-25.8-22.9-25.8zM287.6 541.4V558c0 19.7 5.2 25.9 22.1 25.9h404.5c16.9 0 22.1-6.2 22.1-25.9v-16.6c0-19.7-5.2-25.8-22.1-25.8H309.7c-12 0-22.1 6.2-22.1 25.8z m22.6-151.1h198.6c17.3 0 22.6-6.2 22.6-25.9v-16.6c0-19.7-5.3-25.8-22.6-25.8H310.2c-17.3 0-22.6 6.1-22.6 25.8v16.6c0 19.7 5.3 25.9 22.6 25.9z m0 0" fill="#ffffff" p-id="5484"></path></svg>