<?xml version="1.0" standalone="no"?><!DOCTYPE svg PUBLIC "-//W3C//DTD SVG 1.1//EN" "http://www.w3.org/Graphics/SVG/1.1/DTD/svg11.dtd"><svg t="1556800740586" class="icon" style="" viewBox="0 0 1261 1024" version="1.1" xmlns="http://www.w3.org/2000/svg" p-id="1996" xmlns:xlink="http://www.w3.org/1999/xlink" width="78.8125" height="64"><defs><style type="text/css"></style></defs><path d="M30.6099 595.461403l490.099264 178.444126L1056.723278 232.710229l94.420292 88.898239L1233.360807 0l-326.823741 91.352485 94.420292 88.864152-500.73433 505.540561L57.742951 524.663227c-20.008921-7.294564-42.369828 2.62468-49.834826 22.190473C0.374954 566.385407 10.566892 588.132752 30.6099 595.461403zM0 1022.568357l276.613961 0 0-243.515729L0 678.360374 0 1022.568357zM327.98269 797.80034l0 224.768017 276.613961 0 0-206.49752-59.992677 60.572151L327.98269 797.80034zM655.999467 1022.568357l276.613961 0L932.613428 484.918079l-276.613961 279.272727L655.999467 1022.568357zM1058.973004 357.33138l-74.956759 75.706668 0 589.564395 276.579874 0L1260.596119 574.191272 1058.973004 357.33138z" fill="#ffffff" p-id="1997"></path></svg>