<?xml version="1.0" standalone="no"?><!DOCTYPE svg PUBLIC "-//W3C//DTD SVG 1.1//EN" "http://www.w3.org/Graphics/SVG/1.1/DTD/svg11.dtd"><svg t="1556174155453" class="icon" style="" viewBox="0 0 1024 1024" version="1.1" xmlns="http://www.w3.org/2000/svg" p-id="12844" xmlns:xlink="http://www.w3.org/1999/xlink" width="64" height="64"><defs><style type="text/css"></style></defs><path d="M70.4 915.2c0 19.2 12.8 32 25.6 32h115.2c12.8 0 25.6-12.8 25.6-32V601.6L64 710.4v204.8z m236.8-358.4v358.4c0 19.2 12.8 32 25.6 32H448c12.8 0 25.6-12.8 25.6-32V544l-70.4-44.8-96 57.6z m243.2 32v326.4c0 19.2 12.8 32 25.6 32h115.2c12.8 0 25.6-12.8 25.6-32V435.2v-6.4L550.4 588.8z m236.8-224v550.4c0 19.2 12.8 32 25.6 32h115.2c12.8 0 25.6-12.8 25.6-32V352l-70.4-89.6-96 102.4z m0 0" p-id="12845" fill="#ffffff"></path><path d="M940.8 76.8l-108.8 6.4s-44.8 0-32 12.8l57.6 57.6-300.8 256L448 332.8c-6.4-6.4-19.2-6.4-32 0L76.8 563.2c-12.8 6.4-12.8 12.8-12.8 25.6 6.4 12.8 12.8 19.2 25.6 19.2 6.4 0 12.8 0 12.8-6.4L428.8 384l108.8 83.2c6.4 6.4 25.6 6.4 32 0l320-268.8 44.8 51.2c19.2 12.8 25.6-12.8 25.6-12.8V102.4s0-19.2-19.2-25.6zM70.4 345.6" p-id="12846" fill="#ffffff"></path></svg>