<?xml version="1.0" standalone="no"?><!DOCTYPE svg PUBLIC "-//W3C//DTD SVG 1.1//EN" "http://www.w3.org/Graphics/SVG/1.1/DTD/svg11.dtd"><svg t="1556174032534" class="icon" style="" viewBox="0 0 1024 1024" version="1.1" xmlns="http://www.w3.org/2000/svg" p-id="10999" xmlns:xlink="http://www.w3.org/1999/xlink" width="64" height="64"><defs><style type="text/css"></style></defs><path d="M118.7 415.3l375.4 214.5c5.5 3.2 11.7 4.7 17.9 4.7 6.2 0 12.3-1.6 17.9-4.7l375.4-214.5c24.2-13.8 24.2-48.7 0-62.5L529.9 138.2c-5.5-3.2-11.7-4.7-17.9-4.7-6.2 0-12.3 1.6-17.9 4.7L118.7 352.7c-24.2 13.9-24.2 48.7 0 62.6zM512 210.9L814.9 384 512 557.1 209.1 384 512 210.9z" p-id="11000" fill="#ffffff"></path><path d="M117.1 542.3l282.2 161.3 77 44c11.1 6.3 23.4 9.5 35.7 9.5s24.7-3.2 35.7-9.5l77-44 282.2-161.3c21.8-12.5 25.8-41.1 10.7-59.1-2.1-2.5-4.5-4.8-7.3-6.8l-253.8 145-108.8 62.1c-22.1 12.6-49.3 12.6-71.4 0l-108.8-62.1-253.8-145c-2.8 2-5.2 4.3-7.3 6.8-15.1 18-11.1 46.7 10.7 59.1z" p-id="11001" fill="#ffffff"></path><path d="M910.2 604.4L547.7 811.6c-22.1 12.6-49.3 12.6-71.4 0L113.8 604.4c-23.3 16.6-21.5 51.7 3.3 65.9l282.2 161.3 77 44c11.1 6.3 23.4 9.5 35.7 9.5s24.7-3.2 35.7-9.5l77-44 282.2-161.3c24.8-14.1 26.6-49.2 3.3-65.9z" p-id="11002" fill="#ffffff"></path></svg>