<?xml version="1.0" standalone="no"?><!DOCTYPE svg PUBLIC "-//W3C//DTD SVG 1.1//EN" "http://www.w3.org/Graphics/SVG/1.1/DTD/svg11.dtd"><svg t="1556174072764" class="icon" style="" viewBox="0 0 1024 1024" version="1.1" xmlns="http://www.w3.org/2000/svg" p-id="11196" xmlns:xlink="http://www.w3.org/1999/xlink" width="64" height="64"><defs><style type="text/css"></style></defs><path d="M78.769231 157.523298C78.769231 114.028627 113.72045 78.769231 157.523298 78.769231L393.861318 78.769231C437.355988 78.769231 472.615385 113.72045 472.615385 157.523298L472.615385 393.861318C472.615385 437.355988 437.664165 472.615385 393.861318 472.615385L157.523298 472.615385C114.028627 472.615385 78.769231 437.664165 78.769231 393.861318L78.769231 157.523298ZM78.769231 630.138682C78.769231 586.644012 113.72045 551.384615 157.523298 551.384615L393.861318 551.384615C437.355988 551.384615 472.615385 586.335835 472.615385 630.138682L472.615385 866.476702C472.615385 909.971369 437.664165 945.230769 393.861318 945.230769L157.523298 945.230769C114.028627 945.230769 78.769231 910.279554 78.769231 866.476702L78.769231 630.138682ZM551.384615 157.523298C551.384615 114.028627 586.335835 78.769231 630.138682 78.769231L866.476702 78.769231C909.971369 78.769231 945.230769 113.72045 945.230769 157.523298L945.230769 393.861318C945.230769 437.355988 910.279554 472.615385 866.476702 472.615385L630.138682 472.615385C586.644012 472.615385 551.384615 437.664165 551.384615 393.861318L551.384615 157.523298ZM551.384615 630.138682C551.384615 586.644012 586.335835 551.384615 630.138682 551.384615L866.476702 551.384615C909.971369 551.384615 945.230769 586.335835 945.230769 630.138682L945.230769 866.476702C945.230769 909.971369 910.279554 945.230769 866.476702 945.230769L630.138682 945.230769C586.644012 945.230769 551.384615 910.279554 551.384615 866.476702L551.384615 630.138682Z" p-id="11197" fill="#ffffff"></path></svg>