<?xml version="1.0" standalone="no"?><!DOCTYPE svg PUBLIC "-//W3C//DTD SVG 1.1//EN" "http://www.w3.org/Graphics/SVG/1.1/DTD/svg11.dtd"><svg t="1556174101717" class="icon" style="" viewBox="0 0 1024 1024" version="1.1" xmlns="http://www.w3.org/2000/svg" p-id="12023" xmlns:xlink="http://www.w3.org/1999/xlink" width="64" height="64"><defs><style type="text/css"></style></defs><path d="M129.259 459.612l235.559 142.626c16.958 9.715 22.91 31.361 13.196 48.348-9.714 17.014-31.389 22.91-48.403 13.195-0.505-0.309-1.011-0.617-1.516-0.954L32.846 484.15c-16.733-10.136-22.124-31.922-12.017-48.684 3.931-6.443 9.771-11.483 16.733-14.375L959.19 36.209c18.024-7.539 38.801 1.011 46.325 19.078a35.295 35.295 0 0 1 2.134 20.271L846.155 926.294c-3.649 19.231-22.18 31.838-41.44 28.188-4.38-0.814-8.591-2.499-12.354-4.886L493.07 759.83c-16.565-10.473-21.506-32.372-11.006-48.937 10.444-16.537 32.344-21.45 48.909-10.978l255.269 161.858L925.667 127.05 129.259 459.612z" p-id="12024" fill="#ffffff"></path><path d="M405.641 662.771V955.1c0 19.569-15.835 35.433-35.432 35.433-19.541 0-35.432-15.863-35.432-35.433V646.459c0-10.36 4.548-20.188 12.41-26.926l430.857-368.948c14.88-12.719 37.285-10.978 50.031 3.902 12.69 14.88 10.95 37.257-3.931 49.976l-418.503 358.28v0.028z" p-id="12025" fill="#ffffff"></path></svg>