<?xml version="1.0" standalone="no"?><!DOCTYPE svg PUBLIC "-//W3C//DTD SVG 1.1//EN" "http://www.w3.org/Graphics/SVG/1.1/DTD/svg11.dtd"><svg t="1556612483448" class="icon" style="" viewBox="0 0 1024 1024" version="1.1" xmlns="http://www.w3.org/2000/svg" p-id="1995" xmlns:xlink="http://www.w3.org/1999/xlink" width="64" height="64"><defs><style type="text/css"></style></defs><path d="M194.9 444.8c25 25 65.5 25 90.5 0L448 282.2v421.6c0 35.3 28.7 64 64 64s64-28.7 64-64V282.2l162.6 162.6c25 25 65.5 25 90.5 0s25-65.5 0-90.5L557.4 82.6c-12.5-12.5-29-18.8-45.4-18.7-16.4 0-32.9 6.2-45.4 18.7L194.9 354.3c-25 25-25 65.5 0 90.5zM96 895.7c0-35.3 28.7-64 64-64h704c35.3 0 64 28.7 64 64s-28.7 64-64 64H160c-35.3 0-64-28.6-64-64z" p-id="1996" fill="#ffffff"></path></svg>